<svg xmlns="http://www.w3.org/2000/svg" viewBox="0 0 874.6 525.8"><linearGradient id="a" gradientUnits="userSpaceOnUse" x1="350.096" y1="438.154" x2="612.561" y2="438.154"><stop offset="0" stop-color="#fff"/><stop offset=".144" stop-color="#feeae8"/><stop offset=".447" stop-color="#fbb3ae"/><stop offset=".879" stop-color="#f55c51"/><stop offset="1" stop-color="#f44336"/></linearGradient><path d="M525.1 525.4l.2.4H350.1L437.5 351l-.2-.4h175.3l-87.5 174.8z" fill="url(#a)"/><linearGradient id="b" gradientUnits="userSpaceOnUse" x1=".855" y1="438.154" x2="263.32" y2="438.154"><stop offset="0" stop-color="#fff"/><stop offset=".144" stop-color="#feeae8"/><stop offset=".447" stop-color="#fbb3ae"/><stop offset=".879" stop-color="#f55c51"/><stop offset="1" stop-color="#f44336"/></linearGradient><path d="M175.9 525.4l.2.4H.9L88.3 351l-.2-.4h175.3l-87.5 174.8z" fill="url(#b)"/><linearGradient id="c" gradientUnits="userSpaceOnUse" x1="437.299" y1="262.893" x2="612.561" y2="262.893"><stop offset="0" stop-color="#fff"/><stop offset=".144" stop-color="#feeae8"/><stop offset=".447" stop-color="#fbb3ae"/><stop offset=".879" stop-color="#f55c51"/><stop offset="1" stop-color="#f44336"/></linearGradient><path d="M524.9 175.3l87.6 175.3H437.3l87.6-175.3z" fill="url(#c)"/><linearGradient id="d" gradientUnits="userSpaceOnUse" x1="87.631" y1="262.893" x2="262.893" y2="262.893"><stop offset="0" stop-color="#fff"/><stop offset=".144" stop-color="#feeae8"/><stop offset=".447" stop-color="#fbb3ae"/><stop offset=".879" stop-color="#f55c51"/><stop offset="1" stop-color="#f44336"/></linearGradient><path d="M175.3 175.3l87.6 175.3H87.6l87.7-175.3z" fill="url(#d)"/><linearGradient id="e" gradientUnits="userSpaceOnUse" x1="524.075" y1="262.893" x2="786.968" y2="262.893"><stop offset="0" stop-color="#fff"/><stop offset=".144" stop-color="#feeae8"/><stop offset=".447" stop-color="#fbb3ae"/><stop offset=".879" stop-color="#f55c51"/><stop offset="1" stop-color="#f44336"/></linearGradient><path d="M699.3 175.3L787 350.5H611.7l-87.6-175.3h175.2z" fill="url(#e)"/><linearGradient id="f" gradientUnits="userSpaceOnUse" x1="175.262" y1="262.893" x2="438.155" y2="262.893"><stop offset="0" stop-color="#fff"/><stop offset=".144" stop-color="#feeae8"/><stop offset=".447" stop-color="#fbb3ae"/><stop offset=".879" stop-color="#f55c51"/><stop offset="1" stop-color="#f44336"/></linearGradient><path d="M350.5 175.3l87.6 175.3H262.9l-87.6-175.3h175.2z" fill="url(#f)"/><linearGradient id="g" gradientUnits="userSpaceOnUse" x1="524.075" y1="87.631" x2="699.337" y2="87.631"><stop offset="0" stop-color="#fff"/><stop offset=".144" stop-color="#feeae8"/><stop offset=".447" stop-color="#fbb3ae"/><stop offset=".879" stop-color="#f55c51"/><stop offset="1" stop-color="#f44336"/></linearGradient><path d="M611.7 0l87.6 175.3H524.1L611.7 0z" fill="url(#g)"/><linearGradient id="h" gradientUnits="userSpaceOnUse" x1="175.262" y1="87.631" x2="350.524" y2="87.631"><stop offset="0" stop-color="#fff"/><stop offset=".144" stop-color="#feeae8"/><stop offset=".447" stop-color="#fbb3ae"/><stop offset=".879" stop-color="#f55c51"/><stop offset="1" stop-color="#f44336"/></linearGradient><path d="M262.9 0l87.6 175.3H175.3L262.9 0z" fill="url(#h)"/><linearGradient id="i" gradientUnits="userSpaceOnUse" x1="611.706" y1="438.154" x2="786.968" y2="438.154"><stop offset="0" stop-color="#fff"/><stop offset=".144" stop-color="#feeae8"/><stop offset=".447" stop-color="#fbb3ae"/><stop offset=".879" stop-color="#f55c51"/><stop offset="1" stop-color="#f44336"/></linearGradient><path d="M699.3 525.8l-87.6-175.3H787l-87.7 175.3z" fill="url(#i)"/><linearGradient id="j" gradientUnits="userSpaceOnUse" x1="262.465" y1="438.154" x2="437.727" y2="438.154"><stop offset="0" stop-color="#fff"/><stop offset=".144" stop-color="#feeae8"/><stop offset=".447" stop-color="#fbb3ae"/><stop offset=".879" stop-color="#f55c51"/><stop offset="1" stop-color="#f44336"/></linearGradient><path d="M350.1 525.8l-87.6-175.3h175.3l-87.7 175.3z" fill="url(#j)"/><linearGradient id="k" gradientUnits="userSpaceOnUse" x1="699.337" y1="438.154" x2="874.599" y2="438.154"><stop offset="0" stop-color="#fff"/><stop offset=".144" stop-color="#feeae8"/><stop offset=".447" stop-color="#fbb3ae"/><stop offset=".879" stop-color="#f55c51"/><stop offset="1" stop-color="#f44336"/></linearGradient><path d="M787 350.5l87.6 175.3H699.3L787 350.5z" fill="url(#k)"/></svg>